<?xml version="1.0" standalone="no"?>
<!DOCTYPE svg PUBLIC "-//W3C//DTD SVG 20010904//EN"
 "http://www.w3.org/TR/2001/REC-SVG-20010904/DTD/svg10.dtd">
<svg version="1.0" xmlns="http://www.w3.org/2000/svg"
 width="301.000000pt" height="467.000000pt" viewBox="0 0 301.000000 467.000000"
 preserveAspectRatio="xMidYMid meet">

<g transform="translate(0.000000,467.000000) scale(0.100000,-0.100000)"
fill="#000000" stroke="none">
<path d="M0 2335 l0 -2335 1505 0 1505 0 0 2335 0 2335 -1505 0 -1505 0 0
-2335z m2835 2130 c-9 -20 -18 -35 -21 -32 -3 2 3 21 12 41 23 47 29 40 9 -9z
m-58 -27 c-3 -8 -6 -5 -6 6 -1 11 2 17 5 13 3 -3 4 -12 1 -19z m-37 -57 c-5
-11 -15 -32 -20 -47 -6 -15 -13 -24 -16 -21 -6 5 33 87 42 87 2 0 0 -9 -6 -19z
m35 -31 c-10 -22 -20 -38 -23 -35 -3 3 3 23 13 45 10 22 20 38 23 35 3 -3 -3
-23 -13 -45z m-104 -117 c-11 -21 -20 -32 -21 -25 0 17 30 75 36 69 3 -3 -4
-22 -15 -44z m49 7 c-11 -22 -22 -40 -25 -40 -6 0 15 50 28 68 19 24 17 11 -3
-28z m-107 -35 c-7 -21 -13 -19 -13 6 0 11 4 18 10 14 5 -3 7 -12 3 -20z m-56
-117 c-2 -18 -4 -4 -4 32 0 36 2 50 4 33 2 -18 2 -48 0 -65z m-277 32 c-12
-23 -24 -40 -26 -37 -3 3 4 24 16 47 12 23 24 40 26 37 3 -3 -4 -24 -16 -47z
m60 -60 c0 -64 -4 -110 -10 -110 -5 0 -9 46 -9 110 0 63 4 110 9 110 6 0 10
-47 10 -110z m278 65 c-12 -24 -23 -43 -25 -41 -5 5 32 86 39 86 4 0 -2 -20
-14 -45z m47 0 c-8 -21 -18 -36 -21 -33 -2 3 3 22 12 42 23 47 30 39 9 -9z
m-598 -41 c-3 -3 -36 -6 -72 -6 -36 0 -69 3 -72 6 -4 3 29 6 72 6 43 0 76 -3
72 -6z m153 -49 c-10 -12 -10 -21 -2 -40 7 -15 8 -25 2 -25 -16 0 -23 47 -10
70 6 12 14 19 17 16 3 -3 0 -13 -7 -21z m-330 -25 c-11 -22 -23 -40 -25 -40
-3 0 4 18 15 40 11 22 23 40 25 40 3 0 -4 -18 -15 -40z m55 10 c22 -43 18 -61
-5 -20 -11 19 -19 38 -20 43 0 15 10 6 25 -23z m335 -10 c-11 -22 -22 -40 -24
-40 -3 0 3 18 11 40 9 22 20 40 25 40 4 0 -1 -18 -12 -40z m275 -10 c-23 -44
-30 -31 -8 15 10 20 19 32 21 26 2 -5 -4 -24 -13 -41z m115 10 c-25 -50 -35
-52 -15 -4 8 20 15 38 15 40 0 2 5 4 10 4 6 0 1 -18 -10 -40z m-543 4 c-3 -3
-12 -4 -19 -1 -8 3 -5 6 6 6 11 1 17 -2 13 -5z m40 0 c-3 -3 -12 -4 -19 -1 -8
3 -5 6 6 6 11 1 17 -2 13 -5z m450 0 c-3 -3 -12 -4 -19 -1 -8 3 -5 6 6 6 11 1
17 -2 13 -5z m-789 -51 c-16 -2 -40 -2 -55 0 -16 2 -3 4 27 4 30 0 43 -2 28
-4z m185 0 c-7 -2 -21 -2 -30 0 -10 3 -4 5 12 5 17 0 24 -2 18 -5z m470 0
c-24 -2 -62 -2 -85 0 -24 2 -5 4 42 4 47 0 66 -2 43 -4z m-914 -98 c0 -5 -8 6
-19 25 -11 19 -19 40 -19 45 0 6 8 -6 19 -25 11 -19 19 -39 19 -45z m38 -2
c-2 -16 -4 -3 -4 27 0 30 2 43 4 28 2 -16 2 -40 0 -55z m58 41 c8 -20 15 -39
15 -43 -1 -8 -39 61 -40 72 -1 18 11 4 25 -29z m181 -41 c-6 -6 -36 52 -36 69
1 7 10 -4 21 -25 11 -22 18 -41 15 -44z m489 67 c3 -5 1 -10 -4 -10 -6 0 -11
5 -11 10 0 6 2 10 4 10 3 0 8 -4 11 -10z m166 -37 c-11 -21 -20 -35 -21 -32 0
14 31 81 36 76 3 -3 -4 -22 -15 -44z m110 0 c-11 -21 -20 -35 -21 -31 0 12 33
78 38 74 2 -2 -6 -21 -17 -43z m125 -30 c-6 -6 -36 52 -36 69 1 7 10 -4 21
-25 11 -22 18 -41 15 -44z m-949 31 c-3 -3 -12 -4 -19 -1 -8 3 -5 6 6 6 11 1
17 -2 13 -5z m446 -1 c-7 -2 -19 -2 -25 0 -7 3 -2 5 12 5 14 0 19 -2 13 -5z
m170 0 c-7 -2 -19 -2 -25 0 -7 3 -2 5 12 5 14 0 19 -2 13 -5z m160 0 c-7 -2
-19 -2 -25 0 -7 3 -2 5 12 5 14 0 19 -2 13 -5z m-830 -40 c-7 -2 -19 -2 -25 0
-7 3 -2 5 12 5 14 0 19 -2 13 -5z m250 0 c-24 -2 -62 -2 -85 0 -24 2 -5 4 42
4 47 0 66 -2 43 -4z m185 0 c-16 -2 -40 -2 -55 0 -16 2 -3 4 27 4 30 0 43 -2
28 -4z m125 0 c-7 -2 -21 -2 -30 0 -10 3 -4 5 12 5 17 0 24 -2 18 -5z m-796
-105 c-2 -18 -4 -6 -4 27 0 33 2 48 4 33 2 -15 2 -42 0 -60z m1071 29 c-2 -17
-9 -32 -16 -35 -11 -3 -11 -1 0 17 10 17 10 25 0 41 -16 27 -15 35 4 20 9 -8
14 -25 12 -43z m172 2 c0 -9 -7 -23 -17 -30 -15 -13 -15 -12 -4 9 8 15 9 28 1
41 -15 29 -12 39 5 17 8 -11 15 -27 15 -37z m-1185 11 c22 -43 18 -61 -5 -20
-11 19 -19 38 -20 43 0 15 10 6 25 -23z m435 26 c0 -2 7 -20 15 -40 20 -48 10
-46 -15 4 -11 22 -16 40 -10 40 5 0 10 -2 10 -4z m455 -41 c-8 -21 -18 -36
-21 -33 -2 3 3 22 12 42 23 47 30 39 9 -9z m175 35 c0 -5 -4 -10 -10 -10 -5 0
-10 5 -10 10 0 6 5 10 10 10 6 0 10 -4 10 -10z m216 -25 c20 -48 17 -57 -6
-15 -20 36 -24 50 -14 50 3 0 12 -16 20 -35z m-1156 -5 c0 -5 -7 -10 -15 -10
-8 0 -15 5 -15 10 0 6 7 10 15 10 8 0 15 -4 15 -10z m280 0 c0 -5 -7 -10 -15
-10 -8 0 -15 5 -15 10 0 6 7 10 15 10 8 0 15 -4 15 -10z m390 0 c0 -5 -7 -10
-15 -10 -8 0 -15 5 -15 10 0 6 7 10 15 10 8 0 15 -4 15 -10z m40 0 c0 -5 -7
-10 -15 -10 -8 0 -15 5 -15 10 0 6 7 10 15 10 8 0 15 -4 15 -10z m-503 -42
c-3 -7 -5 -2 -5 12 0 14 2 19 5 13 2 -7 2 -19 0 -25z m-264 -5 c-7 -2 -21 -2
-30 0 -10 3 -4 5 12 5 17 0 24 -2 18 -5z m190 0 c-24 -2 -62 -2 -85 0 -24 2
-5 4 42 4 47 0 66 -2 43 -4z m419 0 c-40 -2 -103 -2 -140 0 -37 2 -4 3 73 3
77 0 107 -2 67 -3z m281 0 c-7 -2 -21 -2 -30 0 -10 3 -4 5 12 5 17 0 24 -2 18
-5z m-944 -98 c0 -5 -8 6 -19 25 -11 19 -19 40 -19 45 0 6 8 -6 19 -25 11 -19
19 -39 19 -45z m266 25 c-23 -44 -30 -31 -8 15 10 20 19 32 21 26 2 -5 -4 -24
-13 -41z m511 -27 c-6 -6 -36 52 -36 69 1 7 10 -4 21 -25 11 -22 18 -41 15
-44z m46 65 c-7 -7 -12 -21 -12 -33 0 -12 5 -26 12 -33 9 -9 9 -12 1 -12 -7 0
-15 9 -18 21 -9 26 2 69 17 69 9 0 9 -3 0 -12z m113 2 c3 -5 1 -10 -4 -10 -6
0 -11 5 -11 10 0 6 2 10 4 10 3 0 8 -4 11 -10z m50 -34 c0 -44 -8 -53 -17 -18
-4 15 6 62 14 62 2 0 3 -20 3 -44z m295 -31 c0 -16 -27 28 -34 55 -5 19 -2 16
13 -10 11 -19 20 -39 21 -45z m37 -2 c-2 -16 -4 -3 -4 27 0 30 2 43 4 28 2
-16 2 -40 0 -55z m-1214 30 c-7 -2 -19 -2 -25 0 -7 3 -2 5 12 5 14 0 19 -2 13
-5z m60 -40 c-7 -2 -19 -2 -25 0 -7 3 -2 5 12 5 14 0 19 -2 13 -5z m485 0
c-16 -2 -40 -2 -55 0 -16 2 -3 4 27 4 30 0 43 -2 28 -4z m500 0 c-16 -2 -40
-2 -55 0 -16 2 -3 4 27 4 30 0 43 -2 28 -4z m-941 -105 c-2 -18 -4 -6 -4 27 0
33 2 48 4 33 2 -15 2 -42 0 -60z m390 0 c-2 -18 -4 -6 -4 27 0 33 2 48 4 33 2
-15 2 -42 0 -60z m293 36 c0 -20 -11 -44 -21 -44 -5 0 -4 9 3 20 10 16 10 24
0 40 -6 11 -12 23 -12 27 1 13 30 -30 30 -43z m257 -36 c-2 -18 -4 -6 -4 27 0
33 2 48 4 33 2 -15 2 -42 0 -60z m-1103 36 c24 -51 12 -55 -14 -5 -11 23 -17
41 -12 41 5 0 16 -16 26 -36z m104 -51 c-16 -2 -40 -2 -55 0 -16 2 -3 4 27 4
30 0 43 -2 28 -4z m-103 -73 c-24 -52 -31 -45 -9 9 9 23 19 39 22 37 3 -3 -3
-24 -13 -46z m46 3 c-11 -21 -20 -35 -21 -31 0 12 33 78 38 74 2 -2 -6 -21
-17 -43z m509 7 c11 -22 17 -40 12 -40 -7 0 -42 62 -42 75 0 14 12 0 30 -35z
m170 -10 c0 -27 -4 -50 -10 -50 -5 0 -10 23 -10 50 0 28 5 50 10 50 6 0 10
-22 10 -50z m384 1 c-9 -23 -19 -39 -22 -37 -3 3 3 24 13 46 10 22 20 38 22
36 2 -2 -4 -22 -13 -45z m-945 2 c-1 -21 -3 -30 -6 -20 -3 12 -16 18 -41 19
l-37 1 38 4 c24 3 37 9 37 19 0 8 2 14 5 14 3 0 4 -17 4 -37z m-236 0 c-13 -2
-33 -2 -45 0 -13 2 -3 4 22 4 25 0 35 -2 23 -4z m-1326 -35 c-3 -8 -6 -5 -6 6
-1 11 2 17 5 13 3 -3 4 -12 1 -19z m63 12 c0 -5 -2 -10 -4 -10 -3 0 -8 5 -11
10 -3 6 -1 10 4 10 6 0 11 -4 11 -10z m390 -5 c0 -8 -4 -15 -10 -15 -5 0 -10
7 -10 15 0 8 5 15 10 15 6 0 10 -7 10 -15z m780 6 c0 -6 -4 -13 -10 -16 -5 -3
-10 1 -10 9 0 9 5 16 10 16 6 0 10 -4 10 -9z m-880 -21 c0 -6 -50 -10 -130
-10 -80 0 -130 4 -130 10 0 6 50 10 130 10 80 0 130 -4 130 -10z m-405 -80
c-23 -44 -30 -31 -8 15 10 20 19 32 21 26 2 -5 -4 -24 -13 -41z m571 -27 c-6
-6 -36 52 -36 69 1 7 10 -4 21 -25 11 -22 18 -41 15 -44z m654 37 c-11 -22
-23 -40 -25 -40 -3 0 4 18 15 40 11 22 23 40 25 40 3 0 -4 -18 -15 -40z m113
0 c-9 -22 -20 -40 -25 -40 -4 0 1 18 12 40 11 22 22 40 24 40 3 0 -3 -18 -11
-40z m276 -2 c-1 -24 -3 -35 -6 -25 -4 14 -18 17 -91 19 l-87 2 84 3 c73 3 84
6 88 23 8 32 13 23 12 -22z m460 -33 c0 -5 -8 6 -19 25 -11 19 -19 40 -19 45
0 6 8 -6 19 -25 11 -19 19 -39 19 -45z m431 34 c-12 -23 -24 -39 -26 -36 -7 7
28 77 38 77 5 0 -1 -18 -12 -41z m-1894 -36 c-10 -10 -19 5 -10 18 6 11 8 11
12 0 2 -7 1 -15 -2 -18z m775 -6 c-8 -8 -11 -7 -11 4 0 20 13 34 18 19 3 -7
-1 -17 -7 -23z m-1003 -4 c-16 -2 -40 -2 -55 0 -16 2 -3 4 27 4 30 0 43 -2 28
-4z m1729 -185 c-2 -35 -3 -9 -3 57 0 66 1 94 3 63 2 -32 2 -86 0 -120z
m-2163 118 c-10 -20 -21 -36 -25 -36 -4 0 2 18 13 41 10 22 22 39 24 36 3 -2
-3 -21 -12 -41z m107 -3 c-11 -21 -20 -35 -21 -31 0 12 33 78 38 74 2 -2 -6
-21 -17 -43z m458 -28 c0 -5 -8 6 -19 25 -11 19 -19 40 -19 45 0 6 8 -6 19
-25 11 -19 19 -39 19 -45z m165 5 c5 -19 2 -16 -13 10 -11 19 -20 42 -20 50 0
18 24 -25 33 -60z m491 60 c3 -5 1 -10 -4 -10 -6 0 -11 5 -11 10 0 6 2 10 4
10 3 0 8 -4 11 -10z m55 -40 c-12 -23 -24 -40 -26 -37 -3 3 4 24 16 47 12 23
24 40 26 37 3 -3 -4 -24 -16 -47z m55 40 c3 -5 1 -10 -4 -10 -6 0 -11 5 -11
10 0 6 2 10 4 10 3 0 8 -4 11 -10z m110 -40 c-24 -52 -30 -46 -8 8 9 23 18 40
21 37 3 -3 -3 -23 -13 -45z m222 28 c-3 -8 -6 -5 -6 6 -1 11 2 17 5 13 3 -3 4
-12 1 -19z m835 -121 c2 -42 0 -77 -4 -77 -5 0 -7 51 -6 113 1 115 5 101 10
-36z m-2052 73 c0 -5 -4 -10 -10 -10 -5 0 -10 5 -10 10 0 6 5 10 10 10 6 0 10
-4 10 -10z m1170 1 c0 -6 -4 -13 -10 -16 -5 -3 -10 1 -10 9 0 9 5 16 10 16 6
0 10 -4 10 -9z m-1217 -18 c-7 -2 -21 -2 -30 0 -10 3 -4 5 12 5 17 0 24 -2 18
-5z m1000 0 c-7 -2 -21 -2 -30 0 -10 3 -4 5 12 5 17 0 24 -2 18 -5z m170 0
c-7 -2 -21 -2 -30 0 -10 3 -4 5 12 5 17 0 24 -2 18 -5z m-1623 -254 c0 -140
-4 -228 -9 -224 -10 5 -14 432 -5 447 3 4 7 8 10 8 2 0 4 -104 4 -231z m157
149 c-2 -18 -4 -6 -4 27 0 33 2 48 4 33 2 -15 2 -42 0 -60z m111 53 c-11 -17
-11 -25 0 -42 7 -12 11 -23 8 -26 -3 -3 -11 6 -17 21 -10 20 -10 32 0 52 6 15
14 24 17 21 3 -3 -1 -14 -8 -26z m112 0 c-8 -15 -8 -27 0 -41 7 -13 7 -20 1
-20 -17 0 -24 46 -11 70 6 12 14 19 17 17 2 -3 0 -15 -7 -26z m394 -31 c0 -27
-2 -50 -6 -50 -5 0 -8 26 -8 57 0 69 12 64 14 -7z m-221 13 c23 -51 13 -54
-13 -4 -11 23 -17 41 -12 41 4 0 15 -17 25 -37z m667 -3 c-25 -50 -35 -52 -15
-4 8 20 15 38 15 40 0 2 5 4 10 4 6 0 1 -18 -10 -40z m66 -37 c-5 -5 -36 62
-36 76 1 3 10 -11 21 -32 11 -22 18 -41 15 -44z m209 27 c-23 -44 -30 -31 -8
15 10 20 19 32 21 26 2 -5 -4 -24 -13 -41z m60 40 c3 -5 1 -10 -4 -10 -6 0
-11 5 -11 10 0 6 2 10 4 10 3 0 8 -4 11 -10z m55 -31 c-12 -23 -24 -39 -26
-36 -7 7 28 77 38 77 5 0 -1 -18 -12 -41z m-447 -34 c-7 -21 -13 -19 -13 6 0
11 4 18 10 14 5 -3 7 -12 3 -20z m275 -12 c-16 -2 -40 -2 -55 0 -16 2 -3 4 27
4 30 0 43 -2 28 -4z m-1108 -64 c12 -23 19 -43 16 -46 -4 -4 -46 69 -46 82 0
15 12 1 30 -36z m55 31 c3 -5 1 -10 -4 -10 -6 0 -11 5 -11 10 0 6 2 10 4 10 3
0 8 -4 11 -10z m280 0 c3 -5 1 -10 -4 -10 -6 0 -11 5 -11 10 0 6 2 10 4 10 3
0 8 -4 11 -10z m110 -35 c-8 -21 -18 -36 -21 -33 -2 3 3 22 12 42 23 47 30 39
9 -9z m776 -2 c-11 -21 -20 -35 -21 -32 0 14 31 81 36 76 3 -3 -4 -22 -15 -44z
m669 6 c12 -23 19 -43 16 -46 -4 -4 -46 69 -46 82 0 15 12 1 30 -36z m51 19
c-5 -13 -4 -34 1 -47 7 -21 7 -22 -7 -11 -18 15 -20 51 -3 68 17 17 19 15 9
-10z m234 1 c8 -25 -2 -69 -15 -69 -6 0 -5 9 1 24 8 17 8 29 0 45 -7 12 -8 21
-2 21 5 0 13 -9 16 -21z m46 -26 c-11 -21 -20 -35 -21 -31 0 12 33 78 38 74 2
-2 -6 -21 -17 -43z m-2372 -38 c0 -5 -8 6 -19 25 -11 19 -19 40 -19 45 0 6 8
-6 19 -25 11 -19 19 -39 19 -45z m304 38 c-13 -2 -33 -2 -45 0 -13 2 -3 4 22
4 25 0 35 -2 23 -4z m620 0 c-46 -2 -120 -2 -165 0 -46 1 -9 3 82 3 91 0 128
-2 83 -3z m-556 -35 c-3 -8 -6 -5 -6 6 -1 11 2 17 5 13 3 -3 4 -12 1 -19z
m176 -5 c-7 -2 -19 -2 -25 0 -7 3 -2 5 12 5 14 0 19 -2 13 -5z m120 0 c-7 -2
-21 -2 -30 0 -10 3 -4 5 12 5 17 0 24 -2 18 -5z m667 -3 c0 -6 -58 -10 -154
-10 -93 0 -157 4 -161 10 -4 7 50 10 154 10 101 0 161 -4 161 -10z m-1400
-136 c0 -71 -4 -113 -10 -109 -9 6 -13 202 -4 217 12 19 14 2 14 -108z m110
66 c11 -22 17 -40 12 -40 -7 0 -42 62 -42 75 0 14 12 0 30 -35z m176 -37 c-5
-5 -36 62 -36 76 1 3 10 -11 21 -32 11 -22 18 -41 15 -44z m209 47 c22 -43 18
-61 -5 -20 -11 19 -19 38 -20 43 0 15 10 6 25 -23z m1684 -45 c0 -5 -8 6 -19
25 -11 19 -19 40 -19 45 0 6 8 -6 19 -25 11 -19 19 -39 19 -45z m206 25 c-23
-44 -30 -31 -8 15 10 20 19 32 21 26 2 -5 -4 -24 -13 -41z m72 -27 c-6 -5 -37
56 -37 71 1 6 10 -6 21 -27 11 -22 18 -41 16 -44z m-1904 2 c-7 -21 -13 -19
-13 6 0 11 4 18 10 14 5 -3 7 -12 3 -20z m-210 -12 c-7 -2 -21 -2 -30 0 -10 3
-4 5 12 5 17 0 24 -2 18 -5z m1970 0 c-24 -2 -62 -2 -85 0 -24 2 -5 4 42 4 47
0 66 -2 43 -4z m-1708 -59 c8 -20 15 -39 15 -43 -1 -8 -39 61 -40 72 -1 18 11
4 25 -29z m1890 6 c22 -43 18 -61 -5 -20 -11 19 -19 38 -20 43 0 15 10 6 25
-23z m-2330 -16 c8 -20 15 -39 15 -43 -1 -8 -39 61 -40 72 -1 18 11 4 25 -29z
m291 -41 c-3 -4 -13 10 -21 30 -21 51 -18 59 6 14 11 -22 18 -41 15 -44z
m-221 -3 c-3 -5 -12 -10 -20 -10 -8 0 -17 5 -20 10 -4 6 5 10 20 10 15 0 24
-4 20 -10z m-350 -66 c8 -20 15 -39 15 -43 -1 -8 -39 61 -40 72 -1 18 11 4 25
-29z m110 6 c22 -43 18 -61 -5 -20 -11 19 -19 38 -20 43 0 15 10 6 25 -23z
m294 -45 c0 -5 -8 6 -19 25 -11 19 -19 40 -19 45 0 6 8 -6 19 -25 11 -19 19
-39 19 -45z m155 39 c24 -51 12 -55 -14 -5 -11 23 -17 41 -12 41 5 0 16 -16
26 -36z m232 -41 c-3 -4 -13 10 -21 30 -21 51 -18 59 6 14 11 -22 18 -41 15
-44z m209 32 c-10 -19 -19 -34 -22 -32 -2 3 4 21 13 41 10 19 19 34 22 32 2
-3 -4 -21 -13 -41z m1684 -30 c0 -5 -8 6 -19 25 -11 19 -19 40 -19 45 0 6 8
-6 19 -25 11 -19 19 -39 19 -45z m-2226 -12 c-7 -2 -21 -2 -30 0 -10 3 -4 5
12 5 17 0 24 -2 18 -5z m-403 -64 c12 -23 19 -43 16 -46 -4 -4 -46 73 -46 84
0 13 13 -3 30 -38z m280 1 c11 -22 17 -40 12 -40 -7 0 -42 62 -42 75 0 14 12
0 30 -35z m289 -35 c0 -5 -8 6 -19 25 -11 19 -19 40 -19 45 0 6 8 -6 19 -25
11 -19 19 -39 19 -45z m211 34 c12 -23 19 -43 16 -46 -4 -4 -46 69 -46 82 0
15 12 1 30 -36z m107 -41 c-2 -18 -4 -6 -4 27 0 33 2 48 4 33 2 -15 2 -42 0
-60z m453 -28 c0 -62 -4 -110 -9 -110 -6 0 -10 48 -10 110 0 62 4 110 10 110
5 0 9 -48 9 -110z m1330 69 c12 -23 19 -43 16 -46 -4 -4 -46 69 -46 82 0 15
12 1 30 -36z m-2541 -44 c0 -5 -8 6 -19 25 -11 19 -19 40 -19 45 0 6 8 -6 19
-25 11 -19 19 -39 19 -45z m211 15 c0 -5 -4 -10 -10 -10 -5 0 -10 5 -10 10 0
6 5 10 10 10 6 0 10 -4 10 -10z m66 -17 c-11 -11 -35 -12 -42 -2 -3 5 7 9 22
9 15 0 24 -3 20 -7z m274 -3 c0 -5 -20 -10 -45 -10 -25 0 -45 5 -45 10 0 6 20
10 45 10 25 0 45 -4 45 -10z m165 0 c-3 -5 -13 -10 -21 -10 -8 0 -14 5 -14 10
0 6 9 10 21 10 11 0 17 -4 14 -10z m-790 -60 c22 -43 18 -61 -5 -20 -11 19
-19 38 -20 43 0 15 10 6 25 -23z m115 -10 c11 -22 17 -40 12 -40 -7 0 -42 62
-42 75 0 14 12 0 30 -35z m333 3 c23 -51 13 -54 -13 -4 -11 23 -17 41 -12 41
4 0 15 -17 25 -37z m390 -3 c8 -22 14 -40 11 -40 -2 0 -13 18 -24 40 -11 22
-16 40 -12 40 5 0 16 -18 25 -40z m1833 5 c20 -48 17 -57 -6 -15 -20 36 -24
50 -14 50 3 0 12 -16 20 -35z m-2408 -52 c-21 -2 -57 -2 -80 0 -24 2 -7 4 37
4 44 0 63 -2 43 -4z m26 -93 c5 -19 2 -16 -13 10 -11 19 -20 42 -20 50 0 18
24 -25 33 -60z m222 -7 c-5 -5 -36 62 -36 76 1 3 10 -11 21 -32 11 -22 18 -41
15 -44z m173 -8 c0 -5 -8 6 -19 25 -11 19 -19 42 -19 50 0 16 37 -58 38 -75z
m148 3 c-2 -18 -4 -6 -4 27 0 33 2 48 4 33 2 -15 2 -42 0 -60z m462 2 c0 -8
-8 1 -19 20 -11 19 -19 42 -19 50 0 8 8 -1 19 -20 11 -19 19 -42 19 -50z
m1428 -177 c-1 -49 -3 -9 -3 87 0 96 2 136 3 88 2 -49 2 -127 0 -175z m-2648
172 c0 -5 -8 6 -19 25 -11 19 -19 40 -19 45 0 6 8 -6 19 -25 11 -19 19 -39 19
-45z m111 -5 c0 -5 -22 -10 -50 -10 -27 0 -50 5 -50 10 0 6 23 10 50 10 28 0
50 -4 50 -10z m220 0 c0 -5 -20 -10 -45 -10 -25 0 -45 5 -45 10 0 6 20 10 45
10 25 0 45 -4 45 -10z m333 3 c-7 -2 -21 -2 -30 0 -10 3 -4 5 12 5 17 0 24 -2
18 -5z m-686 -195 c-2 -35 -3 -9 -3 57 0 66 1 94 3 63 2 -32 2 -86 0 -120z
m1280 -85 c-1 -49 -3 -9 -3 87 0 96 2 136 3 88 2 -49 2 -127 0 -175z m-1107
207 c11 -22 16 -40 10 -40 -5 0 -10 2 -10 4 0 2 -7 20 -15 40 -20 48 -10 46
15 -4z m390 0 c11 -22 17 -40 12 -40 -7 0 -42 62 -42 75 0 14 12 0 30 -35z
m-158 -47 c-40 -2 -103 -2 -140 0 -37 2 -4 3 73 3 77 0 107 -2 67 -3z m461 0
c-29 -2 -78 -2 -110 0 -32 2 -8 3 52 3 61 0 87 -1 58 -3z m-583 -64 c12 -23
19 -43 16 -46 -4 -4 -46 69 -46 82 0 15 12 1 30 -36z m679 -34 c0 -5 -8 6 -19
25 -11 19 -19 40 -19 45 0 6 8 -6 19 -25 11 -19 19 -39 19 -45z m818 -7 c-2
-18 -4 -6 -4 27 0 33 2 48 4 33 2 -15 2 -42 0 -60z m-1648 -3 c0 -5 -8 6 -19
25 -11 19 -19 40 -19 45 0 6 8 -6 19 -25 11 -19 19 -39 19 -45z m459 38 c-21
-2 -55 -2 -75 0 -21 2 -4 4 37 4 41 0 58 -2 38 -4z m-188 -43 c0 -5 -20 -10
-45 -10 -25 0 -45 5 -45 10 0 6 20 10 45 10 25 0 45 -4 45 -10z m510 0 c0 -5
-22 -10 -50 -10 -27 0 -50 5 -50 10 0 6 23 10 50 10 28 0 50 -4 50 -10z m-907
-67 c23 -51 13 -54 -13 -4 -11 23 -17 41 -12 41 4 0 15 -17 25 -37z m167 -3
c11 -22 16 -40 10 -40 -5 0 -10 2 -10 4 0 2 -7 20 -15 40 -20 48 -10 46 15 -4z
m551 -7 c-11 -21 -20 -35 -21 -31 0 12 33 78 38 74 2 -2 -6 -21 -17 -43z m233
31 c10 -26 7 -51 -9 -64 -18 -15 -19 -7 -3 20 10 16 10 24 0 40 -7 11 -8 20
-3 20 5 0 12 -7 15 -16z m816 12 c0 -2 7 -20 15 -40 20 -48 10 -46 -15 4 -11
22 -16 40 -10 40 5 0 10 -2 10 -4z m845 -41 c-8 -21 -18 -36 -21 -33 -2 3 3
22 12 42 23 47 30 39 9 -9z m-2208 -1 c-3 -3 -12 -4 -19 -1 -8 3 -5 6 6 6 11
1 17 -2 13 -5z m46 -1 c-7 -2 -19 -2 -25 0 -7 3 -2 5 12 5 14 0 19 -2 13 -5z
m50 0 c-7 -2 -19 -2 -25 0 -7 3 -2 5 12 5 14 0 19 -2 13 -5z m-225 -40 c-16
-2 -40 -2 -55 0 -16 2 -3 4 27 4 30 0 43 -2 28 -4z m-209 -98 c0 -5 -8 6 -19
25 -11 19 -19 40 -19 45 0 6 8 -6 19 -25 11 -19 19 -39 19 -45z m211 34 c12
-23 19 -43 16 -46 -4 -4 -46 69 -46 82 0 15 12 1 30 -36z m502 29 c-15 -15
-15 -51 0 -66 9 -9 9 -12 1 -12 -7 0 -15 9 -18 21 -9 26 2 69 17 69 9 0 9 -3
0 -12z m68 -33 c0 -12 -7 -28 -16 -35 -13 -12 -14 -10 -4 12 9 20 9 31 -1 49
-11 22 -11 23 4 10 10 -7 17 -24 17 -36z m39 24 c-8 -16 -8 -28 0 -45 6 -13 7
-24 2 -24 -21 0 -28 59 -9 78 18 18 20 15 7 -9z m1671 -29 c-12 -23 -24 -40
-26 -37 -3 3 4 24 16 47 12 23 24 40 26 37 3 -3 -4 -24 -16 -47z m60 -121 c0
-104 -4 -168 -9 -164 -13 7 -13 335 0 335 5 0 9 -73 9 -171z m-2065 116 c-8
-21 -18 -36 -21 -33 -2 3 3 22 12 42 10 19 19 34 21 32 2 -2 -3 -21 -12 -41z
m115 4 c-12 -23 -24 -39 -26 -36 -7 7 28 77 38 77 5 0 -1 -18 -12 -41z m614 5
c24 -51 12 -55 -14 -5 -11 23 -17 41 -12 41 5 0 16 -16 26 -36z m754 -1 c-21
-2 -55 -2 -75 0 -21 2 -4 4 37 4 41 0 58 -2 38 -4z m-1518 -43 c0 -6 -42 -10
-105 -10 -63 0 -105 4 -105 10 0 6 42 10 105 10 63 0 105 -4 105 -10z m1610 0
c0 -5 -9 -10 -20 -10 -11 0 -20 5 -20 10 0 6 9 10 20 10 11 0 20 -4 20 -10z
m37 -102 c-2 -18 -4 -6 -4 27 0 33 2 48 4 33 2 -15 2 -42 0 -60z m-2041 -5
c-6 -6 -36 52 -36 69 1 7 10 -4 21 -25 11 -22 18 -41 15 -44z m595 30 c-11
-21 -20 -35 -21 -31 0 12 33 78 38 74 2 -2 -6 -21 -17 -43z m53 23 c-3 -13 0
-35 7 -48 11 -21 11 -22 -4 -9 -17 13 -23 61 -10 74 11 12 14 8 7 -17z m562
-11 c20 -48 17 -57 -6 -15 -20 36 -24 50 -14 50 3 0 12 -16 20 -35z m1165 -12
c-11 -21 -20 -35 -21 -31 0 12 33 78 38 74 2 -2 -6 -21 -17 -43z m-1554 1 c-3
-3 -12 -4 -19 -1 -8 3 -5 6 6 6 11 1 17 -2 13 -5z m-107 -23 c0 -6 -4 -13 -10
-16 -5 -3 -10 1 -10 9 0 9 5 16 10 16 6 0 10 -4 10 -9z m-282 -18 c-75 -2
-201 -2 -280 0 -79 1 -17 3 137 3 154 0 218 -2 143 -3z m500 0 c-16 -2 -40 -2
-55 0 -16 2 -3 4 27 4 30 0 43 -2 28 -4z m680 0 c-71 -2 -185 -2 -255 0 -71 1
-13 3 127 3 140 0 198 -2 128 -3z m-1508 -133 c0 -67 -4 -110 -10 -110 -6 0
-10 43 -10 110 0 67 4 110 10 110 6 0 10 -43 10 -110z m325 74 c8 -20 15 -39
15 -43 -1 -8 -39 61 -40 72 -1 18 11 4 25 -29z m115 -5 c12 -23 19 -43 16 -46
-4 -4 -46 69 -46 82 0 15 12 1 30 -36z m1276 6 c20 -48 17 -57 -6 -15 -20 36
-24 50 -14 50 3 0 12 -16 20 -35z m445 -18 c-25 -39 -27 -30 -4 18 10 20 19
32 21 26 2 -6 -6 -26 -17 -44z m-1276 13 c22 -43 18 -61 -5 -20 -11 19 -19 38
-20 43 0 15 10 6 25 -23z m1059 -6 c24 -51 12 -55 -14 -5 -11 23 -17 41 -12
41 5 0 16 -16 26 -36z m-1231 -1 c-13 -2 -33 -2 -45 0 -13 2 -3 4 22 4 25 0
35 -2 23 -4z m60 0 c-7 -2 -19 -2 -25 0 -7 3 -2 5 12 5 14 0 19 -2 13 -5z
m210 0 c-13 -2 -33 -2 -45 0 -13 2 -3 4 22 4 25 0 35 -2 23 -4z m64 -35 c-3
-8 -6 -5 -6 6 -1 11 2 17 5 13 3 -3 4 -12 1 -19z m1000 0 c-3 -8 -6 -5 -6 6
-1 11 2 17 5 13 3 -3 4 -12 1 -19z m63 12 c0 -5 -4 -10 -10 -10 -5 0 -10 5
-10 10 0 6 5 10 10 10 6 0 10 -4 10 -10z m-1714 -127 c-6 -6 -36 52 -36 69 1
7 10 -4 21 -25 11 -22 18 -41 15 -44z m157 37 c8 -22 14 -40 11 -40 -2 0 -13
18 -24 40 -11 22 -16 40 -12 40 5 0 16 -18 25 -40z m167 30 c0 -5 -2 -10 -4
-10 -3 0 -8 5 -11 10 -3 6 -1 10 4 10 6 0 11 -4 11 -10z m110 -30 c11 -22 17
-40 12 -40 -7 0 -42 62 -42 75 0 14 12 0 30 -35z m275 -10 c-23 -44 -30 -31
-8 15 10 20 19 32 21 26 2 -5 -4 -24 -13 -41z m725 10 c11 -22 16 -40 12 -40
-5 0 -16 18 -25 40 -8 22 -14 40 -11 40 2 0 13 -18 24 -40z m236 -37 c-6 -6
-36 52 -36 69 1 7 10 -4 21 -25 11 -22 18 -41 15 -44z m44 37 c11 -22 17 -40
12 -40 -7 0 -42 62 -42 75 0 14 12 0 30 -35z m275 -5 c-8 -21 -18 -36 -21 -33
-2 3 3 22 12 42 23 47 30 39 9 -9z m-1152 -2 c-7 -2 -19 -2 -25 0 -7 3 -2 5
12 5 14 0 19 -2 13 -5z m50 0 c-7 -2 -19 -2 -25 0 -7 3 -2 5 12 5 14 0 19 -2
13 -5z m44 1 c-3 -3 -12 -4 -19 -1 -8 3 -5 6 6 6 11 1 17 -2 13 -5z m456 -1
c-7 -2 -19 -2 -25 0 -7 3 -2 5 12 5 14 0 19 -2 13 -5z m-1160 -40 c-7 -2 -21
-2 -30 0 -10 3 -4 5 12 5 17 0 24 -2 18 -5z m1025 0 c-54 -2 -142 -2 -195 0
-54 1 -10 3 97 3 107 0 151 -2 98 -3z m-1598 -64 c12 -23 19 -43 16 -46 -4 -4
-46 69 -46 82 0 15 12 1 30 -36z m390 0 c12 -23 19 -43 16 -46 -4 -4 -46 69
-46 82 0 15 12 1 30 -36z m387 -126 c-2 -32 -3 -6 -3 57 0 63 1 89 3 58 2 -32
2 -84 0 -115z m223 118 c-26 -51 -34 -53 -13 -3 19 47 24 54 30 49 2 -3 -5
-23 -17 -46z m849 -31 c0 -8 -8 1 -19 20 -11 19 -19 42 -19 50 0 8 8 -1 19
-20 11 -19 19 -42 19 -50z m206 44 c8 -20 15 -39 15 -43 -1 -8 -39 61 -40 72
-1 18 11 4 25 -29z m294 -44 c0 -8 -8 1 -19 20 -11 19 -19 42 -19 50 0 8 8 -1
19 -20 11 -19 19 -42 19 -50z m-220 -5 c0 -5 -8 6 -19 25 -11 19 -19 40 -19
45 0 6 8 -6 19 -25 11 -19 19 -39 19 -45z m-1679 15 c0 -5 -4 -10 -10 -10 -5
0 -10 5 -10 10 0 6 5 10 10 10 6 0 10 -4 10 -10z m216 -17 c-10 -10 -19 5 -10
18 6 11 8 11 12 0 2 -7 1 -15 -2 -18z m-41 -3 c4 -6 -23 -10 -75 -10 -52 0
-79 4 -75 10 3 6 37 10 75 10 38 0 72 -4 75 -10z m-238 -102 c-2 -18 -4 -6 -4
27 0 33 2 48 4 33 2 -15 2 -42 0 -60z m1670 0 c-2 -18 -4 -6 -4 27 0 33 2 48
4 33 2 -15 2 -42 0 -60z m330 0 c-2 -18 -4 -6 -4 27 0 33 2 48 4 33 2 -15 2
-42 0 -60z m-2318 -3 c0 -5 -8 6 -19 25 -11 19 -19 40 -19 45 0 6 8 -6 19 -25
11 -19 19 -39 19 -45z m500 0 c0 -5 -8 6 -19 25 -11 19 -19 40 -19 45 0 6 8
-6 19 -25 11 -19 19 -39 19 -45z m167 -2 c-6 -6 -36 52 -36 69 1 7 10 -4 21
-25 11 -22 18 -41 15 -44z m267 37 c8 -22 14 -40 11 -40 -2 0 -13 18 -24 40
-11 22 -16 40 -12 40 5 0 16 -18 25 -40z m828 17 c-6 -14 -5 -30 1 -41 5 -10
8 -20 5 -23 -3 -2 -11 5 -17 17 -13 23 -6 70 10 70 6 0 6 -9 1 -23z m289 -31
c0 -3 -4 -8 -10 -11 -5 -3 -10 -1 -10 4 0 6 5 11 10 11 6 0 10 -2 10 -4z
m-1497 -33 c-7 -2 -21 -2 -30 0 -10 3 -4 5 12 5 17 0 24 -2 18 -5z m-233 -64
c12 -23 19 -43 16 -46 -4 -4 -46 69 -46 82 0 15 12 1 30 -36z m391 -9 c10 -22
16 -40 14 -40 -5 0 -45 76 -45 86 0 14 13 -6 31 -46z m276 -32 c-2 -18 -4 -6
-4 27 0 33 2 48 4 33 2 -15 2 -42 0 -60z m944 35 c-11 -21 -20 -35 -21 -32 0
14 31 81 36 76 3 -3 -4 -22 -15 -44z m106 -35 c-2 -18 -4 -6 -4 27 0 33 2 48
4 33 2 -15 2 -42 0 -60z m-1993 36 c24 -51 12 -55 -14 -5 -11 23 -17 41 -12
41 5 0 16 -16 26 -36z m1717 -11 c-11 -21 -20 -32 -21 -25 0 17 30 75 36 69 3
-3 -4 -22 -15 -44z m564 -12 c3 -5 1 -12 -5 -16 -5 -3 -10 1 -10 9 0 18 6 21
15 7z m-55 -211 c0 -98 -4 -170 -9 -170 -6 0 -10 69 -10 162 0 149 3 178 15
178 2 0 4 -76 4 -170z m-2175 130 c22 -43 18 -61 -5 -20 -11 19 -19 38 -20 43
0 15 10 6 25 -23z m291 -47 c-5 -5 -36 62 -36 76 1 3 10 -11 21 -32 11 -22 18
-41 15 -44z m390 0 c-3 -4 -13 10 -21 30 -21 51 -18 59 6 14 11 -22 18 -41 15
-44z m268 41 c24 -51 12 -55 -14 -5 -11 23 -17 41 -12 41 5 0 16 -16 26 -36z
m604 11 c-8 -19 -8 -28 2 -40 7 -8 10 -18 7 -21 -3 -3 -11 4 -17 16 -13 23 -6
70 10 70 6 0 5 -10 -2 -25z m122 15 c0 -5 -2 -10 -4 -10 -3 0 -8 5 -11 10 -3
6 -1 10 4 10 6 0 11 -4 11 -10z m110 -6 c0 -8 -5 -12 -10 -9 -6 4 -8 11 -5 16
9 14 15 11 15 -7z m220 -24 c11 -22 17 -40 12 -40 -7 0 -42 62 -42 75 0 14 12
0 30 -35z m-267 -47 c-7 -2 -21 -2 -30 0 -10 3 -4 5 12 5 17 0 24 -2 18 -5z
m-1403 -64 c12 -23 19 -43 16 -46 -4 -4 -46 69 -46 82 0 15 12 1 30 -36z m390
0 c12 -23 19 -43 16 -46 -4 -4 -46 69 -46 82 0 15 12 1 30 -36z m279 -6 c12
-24 19 -43 16 -43 -5 0 -45 75 -45 86 0 11 6 2 29 -43z m998 -120 c-2 -32 -3
-6 -3 57 0 63 1 89 3 58 2 -32 2 -84 0 -115z m-1930 80 c-6 -5 -37 56 -37 71
1 6 10 -6 21 -27 11 -22 18 -41 16 -44z m1704 30 c-11 -21 -20 -35 -21 -31 0
12 33 78 38 74 2 -2 -6 -21 -17 -43z m-1661 -13 c0 -5 -5 -10 -11 -10 -5 0 -7
5 -4 10 3 6 8 10 11 10 2 0 4 -4 4 -10z m670 0 c0 -5 -4 -10 -10 -10 -5 0 -10
5 -10 10 0 6 5 10 10 10 6 0 10 -4 10 -10z m955 -20 c4 -6 -13 -10 -44 -10
-28 0 -51 5 -51 10 0 6 20 10 44 10 25 0 48 -4 51 -10z m-1559 -107 c-6 -6
-36 52 -36 69 1 7 10 -4 21 -25 11 -22 18 -41 15 -44z m223 2 c0 -5 -8 6 -19
25 -11 19 -19 40 -19 45 0 6 8 -6 19 -25 11 -19 19 -39 19 -45z m434 35 c8
-22 14 -40 11 -40 -2 0 -13 18 -24 40 -11 22 -16 40 -12 40 5 0 16 -18 25 -40z
m233 -37 c-6 -6 -36 52 -36 69 1 7 10 -4 21 -25 11 -22 18 -41 15 -44z m-847
-75 c11 -23 19 -44 16 -46 -3 -4 -45 72 -45 83 0 14 10 1 29 -37z m1776 -2 c0
-24 -3 -42 -7 -39 -14 8 -8 83 6 83 1 0 1 -20 1 -44z m185 -2 c0 -20 -11 -44
-21 -44 -5 0 -4 11 2 24 8 17 8 30 -1 47 -11 23 -10 23 4 5 9 -11 16 -25 16
-32z m-1724 -41 c-6 -6 -36 52 -36 69 1 7 10 -4 21 -25 11 -22 18 -41 15 -44z
m500 0 c-3 -4 -13 10 -21 30 -21 51 -18 59 6 14 11 -22 18 -41 15 -44z m156
37 c21 -52 14 -52 -12 0 -11 22 -17 40 -13 40 5 0 16 -18 25 -40z m-615 -142
c-2 -18 -4 -6 -4 27 0 33 2 48 4 33 2 -15 2 -42 0 -60z m673 27 c0 -30 -4 -55
-10 -55 -5 0 -10 25 -10 55 0 30 5 55 10 55 6 0 10 -25 10 -55z m827 -27 c-2
-18 -4 -6 -4 27 0 33 2 48 4 33 2 -15 2 -42 0 -60z m173 27 c0 -30 -4 -55 -10
-55 -11 0 -14 93 -3 103 12 12 13 8 13 -48z m-1884 -32 c-5 -5 -36 62 -36 76
1 3 10 -11 21 -32 11 -22 18 -41 15 -44z m714 37 c11 -22 17 -40 12 -40 -7 0
-42 62 -42 75 0 14 12 0 30 -35z m-673 -152 c-2 -18 -4 -6 -4 27 0 33 2 48 4
33 2 -15 2 -42 0 -60z m182 2 c0 -8 -8 5 -19 29 -11 24 -20 46 -20 50 1 12 39
-64 39 -79z m555 10 c5 -19 2 -16 -13 10 -11 19 -20 39 -21 45 0 16 27 -28 34
-55z m101 30 c22 -43 18 -61 -5 -20 -11 19 -19 38 -20 43 0 15 10 6 25 -23z
m840 -5 c0 -19 -4 -35 -10 -35 -5 0 -10 16 -10 35 0 19 5 35 10 35 6 0 10 -16
10 -35z m-1677 -94 c-9 -15 -9 -25 1 -47 11 -24 10 -26 -3 -14 -16 12 -22 61
-9 73 14 15 22 6 11 -12z m720 -6 c-9 -19 -9 -28 0 -37 17 -17 15 -33 -3 -18
-22 18 -17 80 6 80 5 0 3 -11 -3 -25z m890 5 c-10 -16 -10 -24 0 -40 16 -27
15 -35 -3 -20 -22 18 -17 80 6 80 5 0 4 -9 -3 -20z m59 -2 c-3 -8 -6 -5 -6 6
-1 11 2 17 5 13 3 -3 4 -12 1 -19z m173 6 c0 -8 -5 -12 -10 -9 -6 4 -8 11 -5
16 9 14 15 11 15 -7z m-1615 -14 c3 -5 1 -10 -4 -10 -6 0 -11 5 -11 10 0 6 2
10 4 10 3 0 8 -4 11 -10z m1670 0 c3 -5 1 -10 -4 -10 -6 0 -11 5 -11 10 0 6 2
10 4 10 3 0 8 -4 11 -10z m-162 -17 c-7 -2 -19 -2 -25 0 -7 3 -2 5 12 5 14 0
19 -2 13 -5z m-1503 -22 c0 -6 -4 -13 -10 -16 -5 -3 -10 1 -10 9 0 9 5 16 10
16 6 0 10 -4 10 -9z m657 -13 c-3 -8 -6 -5 -6 6 -1 11 2 17 5 13 3 -3 4 -12 1
-19z m1007 7 c-4 -8 -8 -15 -10 -15 -2 0 -4 7 -4 15 0 8 4 15 10 15 5 0 7 -7
4 -15z m-1726 -12 c-15 -2 -42 -2 -60 0 -18 2 -6 4 27 4 33 0 48 -2 33 -4z
m675 0 c-7 -2 -19 -2 -25 0 -7 3 -2 5 12 5 14 0 19 -2 13 -5z m950 0 c-7 -2
-21 -2 -30 0 -10 3 -4 5 12 5 17 0 24 -2 18 -5z m-1796 -105 c-2 -18 -4 -6 -4
27 0 33 2 48 4 33 2 -15 2 -42 0 -60z m1678 30 c8 -21 13 -38 10 -38 -5 0 -45
76 -45 87 0 14 19 -13 35 -49z m-1439 -35 c-5 -5 -36 62 -36 76 1 3 10 -11 21
-32 11 -22 18 -41 15 -44z m498 17 c5 -19 2 -16 -13 10 -11 19 -20 39 -21 45
0 16 27 -28 34 -55z m1166 36 c0 -3 -4 -8 -10 -11 -5 -3 -10 -1 -10 4 0 6 5
11 10 11 6 0 10 -2 10 -4z m-950 -36 c0 -5 -5 -10 -11 -10 -5 0 -7 5 -4 10 3
6 8 10 11 10 2 0 4 -4 4 -10z m945 0 c3 -5 1 -10 -4 -10 -6 0 -11 5 -11 10 0
6 2 10 4 10 3 0 8 -4 11 -10z m-1747 -27 c-21 -2 -57 -2 -80 0 -24 2 -7 4 37
4 44 0 63 -2 43 -4z m725 0 c-24 -2 -62 -2 -85 0 -24 2 -5 4 42 4 47 0 66 -2
43 -4z m945 0 c-21 -2 -57 -2 -80 0 -24 2 -7 4 37 4 44 0 63 -2 43 -4z"/>

</g>
</svg>
